SplineFontDB: 3.2
FontName: MLGamer's_monospace
FullName: MLGamer's monospace
FamilyName: MLGamer's monospace
Weight: Regular
Copyright: (C) Seriy MLGamer, 2020
UComments: "2020-4-12: Created with FontForge (http://fontforge.org)"
Version: 1.0
ItalicAngle: 0
UnderlinePosition: 50
UnderlineWidth: 62
Ascent: 800
Descent: 200
InvalidEm: 0
LayerCount: 2
Layer: 0 0 "Back" 1
Layer: 1 0 "Fore" 0
XUID: [1021 1004 -2098412171 12466]
StyleMap: 0x0000
FSType: 0
OS2Version: 0
OS2_WeightWidthSlopeOnly: 0
OS2_UseTypoMetrics: 1
CreationTime: 1586681345
ModificationTime: 1588773529
OS2TypoAscent: 0
OS2TypoAOffset: 1
OS2TypoDescent: 0
OS2TypoDOffset: 1
OS2TypoLinegap: 90
OS2WinAscent: 0
OS2WinAOffset: 1
OS2WinDescent: 0
OS2WinDOffset: 1
HheadAscent: 0
HheadAOffset: 1
HheadDescent: 0
HheadDOffset: 1
OS2Vendor: 'PfEd'
MarkAttachClasses: 1
DEI: 91125
Encoding: iso8859-5
UnicodeInterp: none
NameList: AGL For New Fonts
DisplaySize: -48
AntiAlias: 1
FitToEm: 0
WinInfo: 80 16 6
BeginPrivate: 0
EndPrivate
Grid
-513.5 1300 m 0
 -513.5 -700 l 1024
-833 1300 m 0
 -833 -700 l 1024
EndSplineSet
BeginChars: 256 172

StartChar: exclam
Encoding: 33 33 1
Width: 375
Flags: HW
LayerCount: 2
Fore
SplineSet
125 175 m 1
 187 175 l 1
 187 112 l 1
 125 112 l 1
 125 175 l 1
125 237 m 1
 125 675 l 1
 187 675 l 1
 187 237 l 1
 125 237 l 1
EndSplineSet
Validated: 1
EndChar

StartChar: quotedbl
Encoding: 34 34 2
Width: 375
Flags: HW
LayerCount: 2
Fore
SplineSet
156 487 m 25
 187 612 l 17
 187 675 l 1
 250 675 l 9
 250 612 l 25
 218 487 l 25
 156 487 l 25
62 675 m 1
 125 675 l 9
 125 612 l 25
 93 487 l 25
 31 487 l 9
 62 612 l 25
 62 675 l 1
EndSplineSet
Validated: 1
EndChar

StartChar: numbersign
Encoding: 35 35 3
Width: 375
Flags: HW
LayerCount: 2
Fore
SplineSet
131 456 m 25
 118 331 l 25
 180 331 l 25
 194 456 l 25
 131 456 l 25
156 112 m 29
 173 268 l 25
 111 268 l 25
 93 112 l 25
 31 112 l 25
 48 268 l 25
 0 268 l 17
 0 331 l 1
 55 331 l 1
 69 456 l 25
 0 456 l 17
 0 518 l 1
 76 518 l 1
 93 675 l 1
 156 675 l 9
 138 518 l 25
 201 518 l 25
 218 675 l 25
 281 675 l 25
 263 518 l 25
 312 518 l 25
 312 456 l 25
 256 456 l 25
 243 331 l 25
 312 331 l 25
 312 268 l 25
 236 268 l 25
 218 112 l 25
 156 112 l 29
EndSplineSet
Validated: 1
EndChar

StartChar: dollar
Encoding: 36 36 4
Width: 375
Flags: HW
LayerCount: 2
Fore
SplineSet
187 175 m 29
 218 175 l 25
 250 206 l 25
 250 331 l 25
 218 362 l 25
 187 362 l 25
 187 175 l 29
125 612 m 25
 93 612 l 25
 62 581 l 25
 62 456 l 25
 93 425 l 25
 125 425 l 25
 125 612 l 25
125 675 m 1
 125 800 l 1
 187 800 l 9
 187 675 l 25
 250 675 l 25
 312 612 l 25
 312 487 l 25
 250 487 l 25
 250 581 l 25
 218 612 l 25
 187 612 l 25
 187 425 l 25
 250 425 l 25
 312 362 l 25
 312 175 l 25
 250 112 l 25
 187 112 l 25
 187 -13 l 25
 125 -13 l 25
 125 112 l 25
 62 112 l 25
 0 175 l 25
 0 300 l 25
 62 300 l 25
 62 206 l 25
 93 175 l 25
 125 175 l 25
 125 362 l 25
 62 362 l 25
 0 425 l 25
 0 612 l 25
 62 675 l 25
 125 675 l 1
EndSplineSet
Validated: 1
EndChar

StartChar: percent
Encoding: 37 37 5
Width: 375
Flags: HW
LayerCount: 2
Fore
SplineSet
281 206 m 29
 218 206 l 29
 218 143 l 29
 281 143 l 29
 281 206 l 29
218 237 m 29
 281 237 l 29
 312 206 l 29
 312 143 l 29
 281 112 l 29
 218 112 l 29
 187 143 l 29
 187 206 l 29
 218 237 l 29
93 643 m 29
 31 643 l 29
 31 581 l 29
 93 581 l 29
 93 643 l 29
31 675 m 29
 93 675 l 29
 125 643 l 29
 125 581 l 29
 93 550 l 29
 31 550 l 29
 0 581 l 29
 0 643 l 29
 31 675 l 29
0 112 m 29
 250 675 l 29
 312 675 l 29
 62 112 l 29
 0 112 l 29
EndSplineSet
Validated: 1
EndChar

StartChar: ampersand
Encoding: 38 38 6
Width: 375
Flags: HW
LayerCount: 2
Fore
SplineSet
109 378 m 25
 62 331 l 25
 62 206 l 25
 93 175 l 25
 218 175 l 25
 250 206 l 25
 250 237 l 25
 109 378 l 25
62 425 m 25
 0 487 l 25
 0 612 l 25
 62 675 l 25
 156 675 l 25
 218 612 l 25
 218 487 l 25
 156 425 l 25
 250 331 l 25
 250 425 l 25
 312 425 l 25
 312 268 l 25
 375 206 l 1
 375 175 l 25
 312 175 l 1
 250 112 l 25
 62 112 l 25
 0 175 l 25
 0 362 l 25
 62 425 l 25
125 612 m 25
 93 612 l 25
 62 581 l 25
 62 518 l 25
 93 487 l 25
 125 487 l 25
 156 518 l 25
 156 581 l 25
 125 612 l 25
EndSplineSet
Validated: 1
EndChar

StartChar: quotesingle
Encoding: 39 39 7
Width: 375
Flags: HW
LayerCount: 2
Fore
SplineSet
125 675 m 29
 187 675 l 25
 187 612 l 25
 156 487 l 25
 93 487 l 25
 125 612 l 25
 125 675 l 29
EndSplineSet
Validated: 1
EndChar

StartChar: parenleft
Encoding: 40 40 8
Width: 375
Flags: HW
LayerCount: 2
Fore
SplineSet
187 675 m 25
 250 675 l 25
 156 487 l 25
 125 362 l 25
 125 175 l 25
 156 50 l 25
 250 -138 l 25
 187 -138 l 25
 93 50 l 25
 62 175 l 25
 62 362 l 25
 93 487 l 25
 187 675 l 25
EndSplineSet
Validated: 1
EndChar

StartChar: parenright
Encoding: 41 41 9
Width: 375
Flags: HW
LayerCount: 2
Fore
SplineSet
62 675 m 29
 125 675 l 25
 218 487 l 25
 250 362 l 25
 250 175 l 25
 218 50 l 25
 125 -138 l 25
 62 -138 l 25
 156 50 l 25
 187 175 l 25
 187 362 l 25
 156 487 l 25
 62 675 l 29
EndSplineSet
Validated: 1
EndChar

StartChar: asterisk
Encoding: 42 42 10
Width: 375
Flags: HW
LayerCount: 2
Fore
SplineSet
125 675 m 25
 187 675 l 25
 187 581 l 25
 312 643 l 25
 312 581 l 25
 187 518 l 25
 312 456 l 25
 312 393 l 25
 187 456 l 25
 187 362 l 25
 125 362 l 25
 125 456 l 25
 0 393 l 25
 0 456 l 25
 125 518 l 25
 0 581 l 25
 0 643 l 25
 125 581 l 25
 125 675 l 25
EndSplineSet
Validated: 1
EndChar

StartChar: plus
Encoding: 43 43 11
Width: 375
Flags: HW
LayerCount: 2
Fore
SplineSet
125 112 m 25
 125 237 l 25
 0 237 l 25
 0 300 l 25
 125 300 l 25
 125 425 l 25
 187 425 l 25
 187 300 l 25
 312 300 l 25
 312 237 l 25
 187 237 l 25
 187 112 l 25
 125 112 l 25
EndSplineSet
Validated: 1
EndChar

StartChar: comma
Encoding: 44 44 12
Width: 375
Flags: HW
LayerCount: 2
Fore
SplineSet
125 175 m 29
 187 175 l 29
 187 112 l 29
 125 -13 l 29
 62 -13 l 29
 125 112 l 29
 125 175 l 29
EndSplineSet
Validated: 1
EndChar

StartChar: hyphen
Encoding: 45 45 13
Width: 375
Flags: HW
LayerCount: 2
Fore
SplineSet
0 237 m 5
 0 300 l 5
 312 300 l 5
 312 237 l 5
 0 237 l 5
EndSplineSet
Validated: 1
EndChar

StartChar: period
Encoding: 46 46 14
Width: 375
Flags: HW
LayerCount: 2
Fore
SplineSet
125 175 m 29
 187 175 l 29
 187 112 l 29
 125 112 l 29
 125 175 l 29
EndSplineSet
Validated: 1
EndChar

StartChar: slash
Encoding: 47 47 15
Width: 375
Flags: HW
LayerCount: 2
Fore
SplineSet
0 112 m 25
 250 675 l 25
 312 675 l 25
 62 112 l 25
 0 112 l 25
EndSplineSet
Validated: 1
EndChar

StartChar: zero
Encoding: 48 48 16
Width: 375
Flags: HW
LayerCount: 2
Fore
SplineSet
125 425 m 25
 187 425 l 25
 187 362 l 25
 125 362 l 25
 125 425 l 25
218 612 m 25
 93 612 l 25
 62 581 l 25
 62 206 l 25
 93 175 l 25
 218 175 l 25
 250 206 l 25
 250 581 l 25
 218 612 l 25
62 675 m 25
 250 675 l 25
 312 612 l 25
 312 175 l 25
 250 112 l 25
 62 112 l 25
 0 175 l 25
 0 612 l 25
 62 675 l 25
EndSplineSet
Validated: 1
EndChar

StartChar: one
Encoding: 49 49 17
Width: 375
Flags: HW
LayerCount: 2
Fore
SplineSet
125 675 m 1
 187 675 l 25
 187 112 l 25
 125 112 l 25
 125 581 l 1
 62 518 l 1
 0 518 l 1
 0 550 l 1
 125 675 l 1
EndSplineSet
Validated: 1
EndChar

StartChar: two
Encoding: 50 50 18
Width: 375
Flags: HW
LayerCount: 2
Fore
SplineSet
62 175 m 1
 312 175 l 25
 312 112 l 25
 0 112 l 25
 0 206 l 25
 250 456 l 25
 250 581 l 25
 218 612 l 25
 93 612 l 1
 62 581 l 1
 62 487 l 1
 0 487 l 1
 0 612 l 25
 62 675 l 25
 250 675 l 25
 312 612 l 25
 312 425 l 17
 62 175 l 1
EndSplineSet
Validated: 1
EndChar

StartChar: three
Encoding: 51 51 19
Width: 375
Flags: HW
LayerCount: 2
Fore
SplineSet
62 675 m 29
 250 675 l 25
 312 612 l 25
 312 425 l 25
 281 393 l 25
 312 362 l 25
 312 175 l 25
 250 112 l 25
 62 112 l 25
 0 175 l 25
 0 300 l 25
 62 300 l 25
 62 206 l 25
 93 175 l 25
 218 175 l 25
 250 206 l 25
 250 331 l 25
 218 362 l 25
 125 362 l 25
 125 425 l 25
 218 425 l 25
 250 456 l 25
 250 581 l 25
 218 612 l 25
 93 612 l 25
 62 581 l 25
 62 487 l 25
 0 487 l 25
 0 612 l 25
 62 675 l 29
EndSplineSet
Validated: 1
EndChar

StartChar: four
Encoding: 52 52 20
Width: 375
Flags: HW
LayerCount: 2
Fore
SplineSet
187 550 m 29
 62 300 l 25
 187 300 l 25
 187 550 l 29
187 675 m 25
 250 675 l 25
 250 300 l 25
 312 300 l 25
 312 237 l 25
 250 237 l 25
 250 112 l 25
 187 112 l 25
 187 237 l 25
 0 237 l 25
 0 300 l 25
 187 675 l 25
EndSplineSet
Validated: 1
EndChar

StartChar: five
Encoding: 53 53 21
Width: 375
Flags: HW
LayerCount: 2
Fore
SplineSet
312 675 m 25
 312 612 l 25
 62 612 l 25
 62 425 l 25
 250 425 l 25
 312 362 l 25
 312 175 l 25
 250 112 l 25
 62 112 l 25
 0 175 l 25
 0 300 l 25
 62 300 l 25
 62 206 l 25
 93 175 l 25
 218 175 l 25
 250 206 l 25
 250 331 l 25
 218 362 l 25
 0 362 l 25
 0 675 l 25
 312 675 l 25
EndSplineSet
Validated: 1
EndChar

StartChar: six
Encoding: 54 54 22
Width: 375
Flags: HW
LayerCount: 2
Fore
SplineSet
218 362 m 29
 93 362 l 29
 62 331 l 29
 62 206 l 29
 93 175 l 29
 218 175 l 29
 250 206 l 29
 250 331 l 29
 218 362 l 29
62 675 m 29
 250 675 l 29
 312 612 l 29
 312 487 l 29
 250 487 l 29
 250 581 l 29
 218 612 l 29
 93 612 l 29
 62 581 l 29
 62 393 l 29
 93 425 l 29
 250 425 l 29
 312 362 l 29
 312 175 l 29
 250 112 l 29
 69 112 l 29
 0 175 l 29
 0 612 l 29
 62 675 l 29
EndSplineSet
Validated: 1
EndChar

StartChar: seven
Encoding: 55 55 23
Width: 375
Flags: HW
LayerCount: 2
Fore
SplineSet
0 675 m 29
 312 675 l 25
 312 612 l 25
 62 112 l 25
 0 112 l 25
 250 612 l 25
 0 612 l 25
 0 675 l 29
EndSplineSet
Validated: 1
EndChar

StartChar: eight
Encoding: 56 56 24
Width: 375
Flags: HW
LayerCount: 2
Fore
SplineSet
218 362 m 25
 93 362 l 25
 62 331 l 25
 62 206 l 25
 93 175 l 25
 218 175 l 25
 250 206 l 25
 250 331 l 25
 218 362 l 25
217 612 m 25
 93 612 l 25
 62 581 l 25
 62 456 l 25
 93 425 l 25
 221 425 l 25
 250 456 l 25
 250 581 l 25
 217 612 l 25
62 675 m 25
 250 675 l 25
 312 612 l 25
 312 425 l 25
 281 393 l 25
 312 362 l 25
 312 175 l 25
 250 112 l 25
 62 112 l 25
 0 175 l 25
 0 362 l 25
 31 393 l 25
 0 425 l 25
 0 612 l 25
 62 675 l 25
EndSplineSet
Validated: 1
EndChar

StartChar: nine
Encoding: 57 57 25
Width: 375
Flags: HW
LayerCount: 2
Fore
SplineSet
93 425 m 25
 218 425 l 25
 250 456 l 25
 250 581 l 25
 218 612 l 25
 93 612 l 25
 62 581 l 25
 62 456 l 25
 93 425 l 25
250 112 m 25
 62 112 l 25
 0 175 l 25
 0 300 l 25
 62 300 l 25
 62 206 l 25
 93 175 l 25
 218 175 l 25
 250 206 l 25
 250 394 l 25
 218 362 l 25
 62 362 l 25
 0 425 l 25
 0 612 l 25
 62 675 l 25
 243 675 l 25
 312 612 l 25
 312 175 l 25
 250 112 l 25
EndSplineSet
Validated: 1
EndChar

StartChar: colon
Encoding: 58 58 26
Width: 375
Flags: HW
LayerCount: 2
Fore
SplineSet
125 425 m 29
 187 425 l 29
 187 362 l 29
 125 362 l 29
 125 425 l 29
125 175 m 29
 187 175 l 29
 187 112 l 29
 125 112 l 29
 125 175 l 29
EndSplineSet
Validated: 1
EndChar

StartChar: semicolon
Encoding: 59 59 27
Width: 375
Flags: HW
LayerCount: 2
Fore
SplineSet
125 175 m 25
 187 175 l 25
 187 112 l 25
 125 -13 l 25
 62 -13 l 25
 125 112 l 25
 125 175 l 25
125 425 m 25
 187 425 l 25
 187 362 l 25
 125 362 l 25
 125 425 l 25
EndSplineSet
Validated: 1
EndChar

StartChar: less
Encoding: 60 60 28
Width: 375
Flags: HW
LayerCount: 2
Fore
SplineSet
312 112 m 25
 0 237 l 25
 0 300 l 25
 312 425 l 25
 312 362 l 25
 78 268 l 25
 312 175 l 25
 312 112 l 25
EndSplineSet
Validated: 1
EndChar

StartChar: equal
Encoding: 61 61 29
Width: 375
Flags: HW
LayerCount: 2
Fore
SplineSet
0 300 m 1
 0 362 l 1
 312 362 l 1
 312 300 l 1
 0 300 l 1
0 175 m 1
 0 237 l 1
 312 237 l 1
 312 175 l 1
 0 175 l 1
EndSplineSet
Validated: 1
EndChar

StartChar: greater
Encoding: 62 62 30
Width: 375
Flags: HW
LayerCount: 2
Fore
SplineSet
0 425 m 29
 312 300 l 29
 312 237 l 29
 0 112 l 29
 0 175 l 29
 234 268 l 29
 0 362 l 29
 0 425 l 29
EndSplineSet
Validated: 1
EndChar

StartChar: question
Encoding: 63 63 31
Width: 375
Flags: HW
LayerCount: 2
Fore
SplineSet
125 175 m 25
 187 175 l 25
 187 112 l 25
 125 112 l 25
 125 175 l 25
187 237 m 25
 125 237 l 25
 125 331 l 25
 250 456 l 25
 250 581 l 25
 218 612 l 25
 93 612 l 1
 62 581 l 1
 62 487 l 1
 0 487 l 1
 0 612 l 25
 62 675 l 25
 250 675 l 25
 312 612 l 25
 312 425 l 17
 187 300 l 1
 187 237 l 25
EndSplineSet
Validated: 1
EndChar

StartChar: at
Encoding: 64 64 32
Width: 375
Flags: HW
LayerCount: 2
Fore
SplineSet
312 175 m 25
 250 112 l 25
 62 112 l 25
 0 175 l 25
 0 622 l 25
 62 675 l 25
 250 675 l 25
 312 612 l 25
 312 300 l 25
 250 237 l 25
 187 237 l 25
 125 300 l 25
 125 425 l 25
 187 425 l 25
 187 331 l 25
 218 300 l 25
 250 331 l 25
 250 581 l 25
 218 612 l 25
 93 612 l 25
 62 581 l 25
 62 206 l 25
 93 175 l 25
 312 175 l 25
EndSplineSet
Validated: 1
EndChar

StartChar: A
Encoding: 65 65 33
Width: 375
Flags: HW
LayerCount: 2
Fore
SplineSet
180 425 m 25
 156 534 l 25
 131 425 l 25
 180 425 l 25
0 112 m 25
 125 675 l 25
 187 675 l 25
 312 112 l 25
 250 112 l 25
 194 362 l 25
 118 362 l 25
 62 112 l 25
 0 112 l 25
EndSplineSet
Validated: 1
EndChar

StartChar: uni0417
Encoding: 183 1047 34
Width: 375
Flags: HW
LayerCount: 2
Fore
SplineSet
62 675 m 29
 250 675 l 25
 312 612 l 25
 312 425 l 25
 281 393 l 25
 312 362 l 25
 312 175 l 25
 250 112 l 25
 62 112 l 25
 0 175 l 25
 0 300 l 25
 62 300 l 25
 62 206 l 25
 93 175 l 25
 218 175 l 25
 250 206 l 25
 250 331 l 25
 218 362 l 25
 125 362 l 25
 125 425 l 25
 218 425 l 25
 250 456 l 25
 250 581 l 25
 218 612 l 25
 93 612 l 25
 62 581 l 25
 62 487 l 25
 0 487 l 25
 0 612 l 25
 62 675 l 29
EndSplineSet
Validated: 1
EndChar

StartChar: B
Encoding: 66 66 35
Width: 375
Flags: HW
LayerCount: 2
Fore
SplineSet
218 362 m 29
 62 362 l 25
 62 175 l 25
 218 175 l 25
 250 206 l 25
 250 331 l 25
 218 362 l 29
218 612 m 25
 62 612 l 25
 62 425 l 25
 218 425 l 25
 250 456 l 25
 250 581 l 25
 218 612 l 25
0 675 m 25
 250 675 l 25
 312 612 l 25
 312 425 l 25
 281 393 l 25
 312 362 l 25
 312 175 l 25
 250 112 l 25
 0 112 l 25
 0 675 l 25
EndSplineSet
Validated: 1
EndChar

StartChar: C
Encoding: 67 67 36
Width: 375
Flags: HW
LayerCount: 2
Fore
SplineSet
250 675 m 29
 312 612 l 29
 312 487 l 29
 250 487 l 29
 250 581 l 29
 218 612 l 29
 93 612 l 29
 62 581 l 29
 62 206 l 29
 93 175 l 29
 218 175 l 29
 250 206 l 29
 250 300 l 29
 312 300 l 29
 312 175 l 29
 250 112 l 29
 62 112 l 29
 0 175 l 29
 0 612 l 29
 62 675 l 29
 250 675 l 29
EndSplineSet
Validated: 1
EndChar

StartChar: D
Encoding: 68 68 37
Width: 375
Flags: HW
LayerCount: 2
Fore
SplineSet
250 581 m 25
 218 612 l 25
 62 612 l 25
 62 175 l 25
 218 175 l 25
 250 206 l 25
 250 581 l 25
312 175 m 25
 250 112 l 25
 0 112 l 25
 0 675 l 25
 250 675 l 25
 312 612 l 25
 312 175 l 25
EndSplineSet
Validated: 1
EndChar

StartChar: E
Encoding: 69 69 38
Width: 375
Flags: HW
LayerCount: 2
Fore
SplineSet
0 675 m 25
 312 675 l 25
 312 612 l 25
 62 612 l 25
 62 425 l 25
 312 425 l 25
 312 362 l 25
 62 362 l 25
 62 175 l 25
 312 175 l 25
 312 112 l 25
 0 112 l 25
 0 675 l 25
EndSplineSet
Validated: 1
EndChar

StartChar: F
Encoding: 70 70 39
Width: 375
Flags: HW
LayerCount: 2
Fore
SplineSet
62 112 m 25
 0 112 l 25
 0 675 l 25
 312 675 l 25
 312 612 l 25
 62 612 l 25
 62 425 l 25
 312 425 l 25
 312 362 l 25
 62 362 l 25
 62 112 l 25
EndSplineSet
Validated: 1
EndChar

StartChar: G
Encoding: 71 71 40
Width: 375
Flags: HW
LayerCount: 2
Fore
SplineSet
312 175 m 29
 250 112 l 25
 62 112 l 25
 0 175 l 25
 0 612 l 25
 62 675 l 25
 250 675 l 25
 312 612 l 25
 312 487 l 25
 250 487 l 25
 250 581 l 25
 218 612 l 25
 93 612 l 25
 62 581 l 25
 62 206 l 25
 93 175 l 25
 218 175 l 25
 250 206 l 25
 250 362 l 25
 125 362 l 25
 125 425 l 25
 312 425 l 25
 312 175 l 29
EndSplineSet
Validated: 1
EndChar

StartChar: H
Encoding: 72 72 41
Width: 375
Flags: HW
LayerCount: 2
Fore
SplineSet
0 675 m 29
 62 675 l 25
 62 425 l 25
 250 425 l 25
 250 675 l 25
 312 675 l 25
 312 112 l 25
 250 112 l 25
 250 362 l 25
 62 362 l 25
 62 112 l 25
 0 112 l 25
 0 675 l 29
EndSplineSet
Validated: 1
EndChar

StartChar: I
Encoding: 73 73 42
Width: 375
Flags: HW
LayerCount: 2
Fore
SplineSet
125 612 m 25
 187 612 l 25
 187 112 l 25
 125 112 l 25
 125 612 l 25
EndSplineSet
Validated: 1
EndChar

StartChar: J
Encoding: 74 74 43
Width: 375
Flags: HW
LayerCount: 2
Fore
SplineSet
250 675 m 29
 312 675 l 25
 312 175 l 25
 250 112 l 25
 62 112 l 25
 0 175 l 25
 0 300 l 25
 62 300 l 25
 62 206 l 25
 93 175 l 25
 218 175 l 25
 250 206 l 25
 250 675 l 29
EndSplineSet
Validated: 1
EndChar

StartChar: K
Encoding: 75 75 44
Width: 375
Flags: HW
LayerCount: 2
Fore
SplineSet
0 675 m 29
 62 675 l 29
 62 456 l 29
 281 675 l 25
 312 675 l 25
 312 612 l 25
 93 393 l 25
 312 175 l 25
 312 112 l 25
 281 112 l 25
 62 331 l 29
 62 112 l 29
 0 112 l 29
 0 675 l 29
EndSplineSet
Validated: 1
EndChar

StartChar: uni0410
Encoding: 176 1040 45
Width: 375
Flags: HW
LayerCount: 2
Fore
SplineSet
180 425 m 25
 156 534 l 25
 131 425 l 25
 180 425 l 25
0 112 m 25
 125 675 l 25
 185 675 l 25
 312 112 l 25
 250 112 l 25
 194 362 l 25
 118 362 l 25
 62 112 l 25
 0 112 l 25
EndSplineSet
Validated: 1
EndChar

StartChar: uni0412
Encoding: 178 1042 46
Width: 375
Flags: HW
LayerCount: 2
Fore
SplineSet
218 362 m 29
 62 362 l 25
 62 175 l 25
 218 175 l 25
 250 206 l 25
 250 331 l 25
 218 362 l 29
218 612 m 25
 62 612 l 25
 62 425 l 25
 218 425 l 25
 250 456 l 25
 250 581 l 25
 218 612 l 25
0 675 m 25
 250 675 l 25
 312 612 l 25
 312 425 l 25
 281 393 l 25
 312 362 l 25
 312 175 l 25
 250 112 l 25
 0 112 l 25
 0 675 l 25
EndSplineSet
Validated: 1
EndChar

StartChar: uni0421
Encoding: 193 1057 47
Width: 375
Flags: HW
LayerCount: 2
Fore
SplineSet
250 675 m 29
 312 612 l 29
 312 487 l 29
 250 487 l 29
 250 581 l 29
 218 612 l 29
 93 612 l 29
 62 581 l 29
 62 206 l 29
 93 175 l 29
 218 175 l 29
 250 206 l 29
 250 300 l 29
 312 300 l 29
 312 175 l 29
 250 112 l 29
 62 112 l 29
 0 175 l 29
 0 612 l 29
 62 675 l 29
 250 675 l 29
EndSplineSet
Validated: 1
EndChar

StartChar: uni0415
Encoding: 181 1045 48
Width: 375
Flags: HW
LayerCount: 2
Fore
SplineSet
0 675 m 25
 312 675 l 25
 312 612 l 25
 62 612 l 25
 62 425 l 25
 312 425 l 25
 312 362 l 25
 62 362 l 25
 62 175 l 25
 312 175 l 25
 312 112 l 25
 0 112 l 25
 0 675 l 25
EndSplineSet
Validated: 1
EndChar

StartChar: uni041D
Encoding: 189 1053 49
Width: 375
Flags: HW
LayerCount: 2
Fore
SplineSet
0 675 m 29
 62 675 l 25
 62 425 l 25
 250 425 l 25
 250 675 l 25
 312 675 l 25
 312 112 l 25
 250 112 l 25
 250 362 l 25
 62 362 l 25
 62 112 l 25
 0 112 l 25
 0 675 l 29
EndSplineSet
Validated: 1
EndChar

StartChar: O
Encoding: 79 79 50
Width: 375
Flags: HW
LayerCount: 2
Fore
SplineSet
218 612 m 25
 93 612 l 25
 62 581 l 25
 62 206 l 25
 93 175 l 25
 218 175 l 25
 250 206 l 25
 250 581 l 25
 218 612 l 25
62 675 m 25
 250 675 l 25
 312 612 l 25
 312 175 l 25
 250 112 l 25
 62 112 l 25
 0 175 l 25
 0 612 l 25
 62 675 l 25
EndSplineSet
Validated: 1
EndChar

StartChar: uni041E
Encoding: 190 1054 51
Width: 375
Flags: HW
LayerCount: 2
Fore
SplineSet
218 612 m 25
 93 612 l 25
 62 581 l 25
 62 206 l 25
 93 175 l 25
 218 175 l 25
 250 206 l 25
 250 581 l 25
 218 612 l 25
62 675 m 25
 250 675 l 25
 312 612 l 25
 312 175 l 25
 250 112 l 25
 62 112 l 25
 0 175 l 25
 0 612 l 25
 62 675 l 25
EndSplineSet
Validated: 1
EndChar

StartChar: uni041A
Encoding: 186 1050 52
Width: 375
Flags: HW
LayerCount: 2
Fore
SplineSet
0 675 m 25
 62 675 l 25
 62 487 l 25
 250 675 l 25
 312 675 l 25
 312 643 l 25
 62 393 l 25
 312 143 l 25
 312 112 l 25
 250 112 l 25
 62 300 l 25
 62 112 l 25
 0 112 l 25
 0 675 l 25
EndSplineSet
Validated: 1
EndChar

StartChar: L
Encoding: 76 76 53
Width: 375
Flags: HW
LayerCount: 2
Fore
SplineSet
0 675 m 29
 62 675 l 25
 62 175 l 25
 312 175 l 25
 312 112 l 25
 0 112 l 25
 0 675 l 29
EndSplineSet
Validated: 1
EndChar

StartChar: M
Encoding: 77 77 54
Width: 375
Flags: HW
LayerCount: 2
Fore
SplineSet
0 675 m 29
 62 675 l 29
 156 253 l 29
 250 675 l 29
 312 675 l 29
 312 112 l 29
 250 112 l 29
 250 393 l 29
 187 112 l 29
 125 112 l 29
 62 393 l 29
 62 112 l 29
 0 112 l 29
 0 675 l 29
EndSplineSet
Validated: 1
EndChar

StartChar: uni0401
Encoding: 161 1025 55
Width: 375
Flags: HW
LayerCount: 2
Fore
SplineSet
187 800 m 25
 250 800 l 25
 250 737 l 25
 187 737 l 25
 187 800 l 25
62 800 m 25
 125 800 l 25
 125 737 l 25
 62 737 l 25
 62 800 l 25
0 675 m 25
 312 675 l 25
 312 612 l 25
 62 612 l 25
 62 425 l 25
 312 425 l 25
 312 362 l 25
 62 362 l 25
 62 175 l 25
 312 175 l 25
 312 112 l 25
 0 112 l 25
 0 675 l 25
EndSplineSet
Validated: 1
EndChar

StartChar: uni041C
Encoding: 188 1052 56
Width: 375
Flags: HW
LayerCount: 2
Fore
SplineSet
0 675 m 29
 62 675 l 25
 156 253 l 25
 250 675 l 25
 312 675 l 25
 312 112 l 25
 250 112 l 25
 250 393 l 25
 187 112 l 25
 125 112 l 25
 62 393 l 25
 62 112 l 25
 0 112 l 25
 0 675 l 29
EndSplineSet
Validated: 1
EndChar

StartChar: N
Encoding: 78 78 57
Width: 375
Flags: HW
LayerCount: 2
Fore
SplineSet
0 675 m 29
 62 675 l 25
 250 253 l 25
 250 675 l 25
 312 675 l 25
 312 112 l 25
 250 112 l 25
 62 534 l 25
 62 112 l 25
 0 112 l 25
 0 675 l 29
EndSplineSet
Validated: 1
EndChar

StartChar: uni0418
Encoding: 184 1048 58
Width: 375
Flags: HW
LayerCount: 2
Fore
SplineSet
312 675 m 25
 312 112 l 25
 250 112 l 25
 250 534 l 25
 62 112 l 25
 0 112 l 25
 0 675 l 25
 62 675 l 25
 62 253 l 25
 250 675 l 25
 312 675 l 25
EndSplineSet
Validated: 1
EndChar

StartChar: uni0419
Encoding: 185 1049 59
Width: 375
Flags: HW
LayerCount: 2
Fore
SplineSet
62 800 m 29
 250 800 l 29
 250 737 l 29
 62 737 l 29
 62 800 l 29
312 675 m 25
 312 112 l 25
 250 112 l 25
 250 534 l 25
 62 112 l 25
 0 112 l 25
 0 675 l 25
 62 675 l 25
 62 253 l 25
 250 675 l 25
 312 675 l 25
EndSplineSet
Validated: 1
EndChar

StartChar: P
Encoding: 80 80 60
Width: 375
Flags: HW
LayerCount: 2
Fore
SplineSet
218 612 m 25
 62 612 l 25
 62 425 l 25
 218 425 l 25
 250 456 l 25
 250 581 l 25
 218 612 l 25
0 675 m 25
 250 675 l 25
 312 612 l 25
 312 425 l 25
 250 362 l 25
 62 362 l 25
 62 112 l 25
 0 112 l 25
 0 675 l 25
EndSplineSet
Validated: 1
EndChar

StartChar: uni0420
Encoding: 192 1056 61
Width: 375
Flags: HW
LayerCount: 2
Fore
SplineSet
218 612 m 25
 62 612 l 25
 62 425 l 25
 218 425 l 25
 250 456 l 25
 250 581 l 25
 218 612 l 25
0 675 m 25
 250 675 l 25
 312 612 l 25
 312 425 l 25
 250 362 l 25
 62 362 l 25
 62 112 l 25
 0 112 l 25
 0 675 l 25
EndSplineSet
Validated: 1
EndChar

StartChar: Q
Encoding: 81 81 62
Width: 375
Flags: HW
LayerCount: 2
Fore
SplineSet
218 612 m 25
 93 612 l 25
 62 581 l 25
 62 206 l 25
 93 175 l 25
 187 175 l 25
 156 206 l 25
 156 237 l 25
 218 237 l 25
 250 206 l 25
 250 581 l 25
 218 612 l 25
62 675 m 25
 250 675 l 25
 312 612 l 25
 312 175 l 1
 296 159 l 1
 375 81 l 1
 375 50 l 25
 312 50 l 25
 250 112 l 25
 62 112 l 25
 0 175 l 25
 0 616 l 25
 62 675 l 25
EndSplineSet
Validated: 1
EndChar

StartChar: R
Encoding: 82 82 63
Width: 375
Flags: HW
LayerCount: 2
Fore
SplineSet
62 612 m 29
 62 425 l 29
 218 425 l 29
 250 456 l 29
 250 581 l 29
 218 612 l 29
 62 612 l 29
0 675 m 29
 250 675 l 29
 312 612 l 29
 312 425 l 29
 250 362 l 29
 93 362 l 29
 312 143 l 29
 312 112 l 29
 250 112 l 29
 62 300 l 29
 62 112 l 29
 0 112 l 29
 0 675 l 29
EndSplineSet
Validated: 1
EndChar

StartChar: uni042F
Encoding: 207 1071 64
Width: 375
Flags: HW
LayerCount: 2
Fore
SplineSet
250 612 m 25
 94 612 l 25
 62 581 l 25
 62 456 l 25
 94 425 l 25
 250 425 l 25
 250 612 l 25
312 675 m 25
 312 112 l 25
 250 112 l 25
 250 300 l 25
 62 112 l 25
 0 112 l 25
 0 143 l 25
 219 362 l 25
 62 362 l 25
 0 425 l 25
 0 612 l 25
 62 675 l 25
 312 675 l 25
EndSplineSet
Validated: 1
EndChar

StartChar: S
Encoding: 83 83 65
Width: 375
Flags: HW
LayerCount: 2
Fore
SplineSet
62 675 m 25
 250 675 l 25
 312 612 l 25
 312 487 l 25
 250 487 l 25
 250 581 l 25
 218 612 l 25
 93 612 l 25
 62 581 l 25
 62 456 l 25
 93 425 l 25
 250 425 l 25
 312 362 l 25
 312 175 l 25
 250 112 l 25
 62 112 l 25
 0 175 l 25
 0 300 l 25
 62 300 l 25
 62 206 l 25
 93 175 l 25
 218 175 l 25
 250 206 l 25
 250 331 l 25
 218 362 l 25
 62 362 l 25
 0 425 l 25
 0 612 l 25
 62 675 l 25
EndSplineSet
Validated: 1
EndChar

StartChar: T
Encoding: 84 84 66
Width: 375
Flags: HW
LayerCount: 2
Fore
SplineSet
0 675 m 25
 312 675 l 25
 312 612 l 25
 187 612 l 25
 187 112 l 25
 125 112 l 25
 125 612 l 25
 0 612 l 25
 0 675 l 25
EndSplineSet
Validated: 1
EndChar

StartChar: uni0422
Encoding: 194 1058 67
Width: 375
Flags: HW
LayerCount: 2
Fore
SplineSet
0 675 m 25
 312 675 l 25
 312 612 l 25
 187 612 l 25
 187 112 l 25
 125 112 l 25
 125 612 l 25
 0 612 l 25
 0 675 l 25
EndSplineSet
Validated: 1
EndChar

StartChar: U
Encoding: 85 85 68
Width: 375
Flags: HW
LayerCount: 2
Fore
SplineSet
312 675 m 25
 312 175 l 25
 250 112 l 25
 62 112 l 25
 0 175 l 25
 0 675 l 25
 62 675 l 25
 62 206 l 25
 93 175 l 25
 218 175 l 25
 250 206 l 25
 250 675 l 25
 312 675 l 25
EndSplineSet
Validated: 1
EndChar

StartChar: V
Encoding: 86 86 69
Width: 375
Flags: HW
LayerCount: 2
Fore
SplineSet
156 253 m 17
 250 675 l 25
 312 675 l 1
 187 112 l 25
 125 112 l 25
 0 675 l 25
 62 675 l 25
 156 253 l 17
EndSplineSet
Validated: 1
EndChar

StartChar: W
Encoding: 87 87 70
Width: 375
Flags: HW
LayerCount: 2
Fore
SplineSet
0 112 m 25
 0 675 l 25
 62 675 l 25
 62 394 l 25
 125 675 l 25
 187 675 l 25
 250 394 l 25
 250 675 l 25
 312 675 l 25
 312 112 l 25
 250 112 l 25
 156 534 l 25
 62 112 l 25
 0 112 l 25
EndSplineSet
Validated: 1
EndChar

StartChar: X
Encoding: 88 88 71
Width: 375
Flags: HW
LayerCount: 2
Fore
SplineSet
0 675 m 29
 62 675 l 25
 156 440 l 25
 250 675 l 25
 312 675 l 25
 187 393 l 25
 312 112 l 25
 250 112 l 25
 156 346 l 25
 62 112 l 25
 0 112 l 25
 125 393 l 25
 0 675 l 29
EndSplineSet
Validated: 1
EndChar

StartChar: uni0425
Encoding: 197 1061 72
Width: 375
Flags: HW
LayerCount: 2
Fore
SplineSet
0 675 m 29
 62 675 l 25
 156 440 l 25
 250 675 l 25
 312 675 l 25
 187 393 l 25
 312 112 l 25
 250 112 l 25
 156 346 l 25
 62 112 l 25
 0 112 l 25
 125 393 l 25
 0 675 l 29
EndSplineSet
Validated: 1
EndChar

StartChar: Y
Encoding: 89 89 73
Width: 375
Flags: HW
LayerCount: 2
Fore
SplineSet
187 393 m 25
 187 112 l 25
 125 112 l 25
 125 393 l 25
 0 675 l 25
 62 675 l 25
 156 464 l 25
 250 675 l 25
 312 675 l 25
 187 393 l 25
EndSplineSet
Validated: 1
EndChar

StartChar: Z
Encoding: 90 90 74
Width: 375
Flags: HW
LayerCount: 2
Fore
SplineSet
0 675 m 25
 312 675 l 25
 312 612 l 25
 62 175 l 25
 312 175 l 25
 312 112 l 25
 0 112 l 25
 0 175 l 25
 250 612 l 25
 0 612 l 25
 0 675 l 25
EndSplineSet
Validated: 1
EndChar

StartChar: bracketleft
Encoding: 91 91 75
Width: 375
Flags: HW
LayerCount: 2
Fore
SplineSet
62 675 m 25
 250 675 l 25
 250 612 l 25
 125 612 l 25
 125 -75 l 25
 250 -75 l 25
 250 -138 l 25
 62 -138 l 25
 62 675 l 25
EndSplineSet
Validated: 1
EndChar

StartChar: backslash
Encoding: 92 92 76
Width: 375
Flags: HW
LayerCount: 2
Fore
SplineSet
0 675 m 25
 62 675 l 25
 312 112 l 25
 250 112 l 25
 0 675 l 25
EndSplineSet
Validated: 1
EndChar

StartChar: bracketright
Encoding: 93 93 77
Width: 375
Flags: HW
LayerCount: 2
Fore
SplineSet
250 -138 m 25
 62 -138 l 25
 62 -75 l 25
 187 -75 l 25
 187 612 l 25
 62 612 l 25
 62 675 l 25
 250 675 l 25
 250 -138 l 25
EndSplineSet
Validated: 1
EndChar

StartChar: asciicircum
Encoding: 94 94 78
Width: 375
Flags: HW
LayerCount: 2
Fore
SplineSet
0 363 m 25
 125 675 l 25
 187 675 l 25
 312 363 l 25
 250 363 l 25
 156 596 l 25
 62 363 l 25
 0 363 l 25
EndSplineSet
Validated: 1
EndChar

StartChar: underscore
Encoding: 95 95 79
Width: 375
Flags: HW
LayerCount: 2
Fore
SplineSet
0 50 m 25
 375 50 l 25
 375 -13 l 25
 0 -13 l 25
 0 50 l 25
EndSplineSet
Validated: 1
EndChar

StartChar: grave
Encoding: 96 96 80
Width: 375
Flags: HW
LayerCount: 2
Fore
SplineSet
62 675 m 25
 125 675 l 25
 250 518 l 25
 250 487 l 25
 187 487 l 25
 62 643 l 25
 62 675 l 25
EndSplineSet
Validated: 1
EndChar

StartChar: a
Encoding: 97 97 81
Width: 375
Flags: HW
LayerCount: 2
Fore
SplineSet
218 237 m 25
 93 237 l 25
 62 206 l 25
 93 175 l 25
 218 175 l 25
 250 206 l 25
 218 237 l 25
62 425 m 25
 250 425 l 25
 312 362 l 29
 312 112 l 25
 250 112 l 25
 250 143 l 25
 218 112 l 25
 62 112 l 25
 0 175 l 25
 0 237 l 25
 57 300 l 25
 218 300 l 25
 250 268 l 25
 250 331 l 25
 218 362 l 25
 0 362 l 25
 62 425 l 25
EndSplineSet
Validated: 1
EndChar

StartChar: uni0430
Encoding: 208 1072 82
Width: 375
Flags: HW
LayerCount: 2
Fore
SplineSet
218 237 m 25
 93 237 l 25
 62 206 l 25
 93 175 l 25
 218 175 l 25
 250 206 l 25
 218 237 l 25
62 425 m 25
 250 425 l 25
 312 362 l 29
 312 112 l 25
 250 112 l 25
 250 143 l 25
 218 112 l 25
 62 112 l 25
 0 175 l 25
 0 237 l 25
 57 300 l 25
 218 300 l 25
 250 268 l 25
 250 331 l 25
 218 362 l 25
 0 362 l 25
 62 425 l 25
EndSplineSet
Validated: 1
EndChar

StartChar: b
Encoding: 98 98 83
Width: 375
Flags: HW
LayerCount: 2
Fore
SplineSet
218 362 m 29
 93 362 l 29
 62 331 l 29
 62 206 l 29
 93 175 l 29
 218 175 l 29
 250 206 l 29
 250 331 l 29
 218 362 l 29
0 675 m 29
 62 675 l 29
 62 393 l 29
 93 425 l 29
 250 425 l 29
 312 362 l 29
 312 175 l 29
 250 112 l 29
 93 112 l 29
 62 143 l 29
 62 112 l 29
 0 112 l 29
 0 675 l 29
EndSplineSet
Validated: 1
EndChar

StartChar: d
Encoding: 100 100 84
Width: 375
Flags: HW
LayerCount: 2
Fore
SplineSet
93 362 m 25
 62 331 l 25
 62 206 l 25
 93 175 l 25
 218 175 l 25
 250 206 l 25
 250 331 l 25
 218 362 l 25
 93 362 l 25
312 675 m 25
 312 112 l 25
 250 112 l 25
 250 143 l 25
 218 112 l 25
 62 112 l 25
 0 175 l 25
 0 362 l 25
 62 425 l 25
 218 425 l 25
 250 393 l 25
 250 675 l 25
 312 675 l 25
EndSplineSet
Validated: 1
EndChar

StartChar: p
Encoding: 112 112 85
Width: 375
Flags: HW
LayerCount: 2
Fore
SplineSet
218 175 m 25
 250 206 l 25
 250 331 l 25
 218 362 l 25
 93 362 l 25
 62 331 l 25
 62 206 l 25
 93 175 l 25
 218 175 l 25
0 -138 m 25
 0 425 l 25
 62 425 l 25
 62 393 l 25
 93 425 l 25
 250 425 l 25
 312 362 l 25
 312 175 l 25
 250 112 l 25
 93 112 l 25
 62 143 l 25
 62 -138 l 25
 0 -138 l 25
EndSplineSet
Validated: 1
EndChar

StartChar: q
Encoding: 113 113 86
Width: 375
Flags: HW
LayerCount: 2
Fore
SplineSet
93 175 m 25
 218 175 l 25
 250 206 l 25
 250 331 l 25
 218 362 l 25
 93 362 l 25
 62 331 l 25
 62 206 l 25
 93 175 l 25
312 -137 m 25
 250 -137 l 25
 250 143 l 25
 218 112 l 25
 62 112 l 25
 0 175 l 25
 0 362 l 25
 62 425 l 25
 218 425 l 25
 250 393 l 25
 250 425 l 25
 312 425 l 25
 312 -137 l 25
EndSplineSet
Validated: 1
EndChar

StartChar: uni0440
Encoding: 224 1088 87
Width: 375
Flags: HW
LayerCount: 2
Fore
SplineSet
218 175 m 25
 250 206 l 25
 250 331 l 25
 218 362 l 25
 93 362 l 25
 62 331 l 25
 62 206 l 25
 93 175 l 25
 218 175 l 25
0 -138 m 25
 0 425 l 25
 62 425 l 25
 62 393 l 25
 93 425 l 25
 250 425 l 25
 312 362 l 25
 312 175 l 25
 250 112 l 25
 93 112 l 25
 62 143 l 25
 62 -138 l 25
 0 -138 l 25
EndSplineSet
Validated: 1
EndChar

StartChar: c
Encoding: 99 99 88
Width: 375
Flags: HW
LayerCount: 2
Fore
SplineSet
62 425 m 25
 250 425 l 25
 312 362 l 25
 312 300 l 25
 250 300 l 25
 250 331 l 25
 218 362 l 25
 93 362 l 25
 62 331 l 25
 62 206 l 25
 93 175 l 25
 218 175 l 25
 250 206 l 25
 250 237 l 25
 312 237 l 25
 312 175 l 25
 250 112 l 25
 62 112 l 25
 0 175 l 25
 0 362 l 25
 62 425 l 25
EndSplineSet
Validated: 1
EndChar

StartChar: uni0441
Encoding: 225 1089 89
Width: 375
Flags: HW
LayerCount: 2
Fore
SplineSet
62 425 m 25
 250 425 l 25
 312 362 l 25
 312 300 l 25
 250 300 l 25
 250 331 l 25
 218 362 l 25
 93 362 l 25
 62 331 l 25
 62 206 l 25
 93 175 l 25
 218 175 l 25
 250 206 l 25
 250 237 l 25
 312 237 l 25
 312 175 l 25
 250 112 l 25
 62 112 l 25
 0 175 l 25
 0 362 l 25
 62 425 l 25
EndSplineSet
Validated: 1
EndChar

StartChar: e
Encoding: 101 101 90
Width: 375
Flags: HW
LayerCount: 2
Fore
SplineSet
218 362 m 25
 93 362 l 25
 62 331 l 25
 62 300 l 25
 250 300 l 25
 250 331 l 25
 218 362 l 25
62 425 m 25
 250 425 l 25
 312 362 l 25
 312 237 l 25
 62 237 l 25
 62 206 l 25
 93 175 l 25
 312 175 l 25
 250 112 l 25
 62 112 l 25
 0 175 l 25
 0 362 l 25
 62 425 l 25
EndSplineSet
Validated: 1
EndChar

StartChar: uni0435
Encoding: 213 1077 91
Width: 375
Flags: HW
LayerCount: 2
Fore
SplineSet
218 362 m 25
 93 362 l 25
 62 331 l 25
 62 300 l 25
 250 300 l 25
 250 331 l 25
 218 362 l 25
62 425 m 25
 250 425 l 25
 312 362 l 25
 312 237 l 25
 62 237 l 25
 62 206 l 25
 93 175 l 25
 312 175 l 25
 250 112 l 25
 62 112 l 25
 0 175 l 25
 0 362 l 25
 62 425 l 25
EndSplineSet
Validated: 1
EndChar

StartChar: uni0451
Encoding: 241 1105 92
Width: 375
Flags: HW
LayerCount: 2
Fore
SplineSet
187 550 m 25
 250 550 l 25
 250 487 l 25
 187 487 l 25
 187 550 l 25
62 550 m 25
 125 550 l 25
 125 487 l 25
 62 487 l 25
 62 550 l 25
218 362 m 25
 93 362 l 25
 62 331 l 25
 62 300 l 25
 250 300 l 25
 250 331 l 25
 218 362 l 25
62 425 m 25
 250 425 l 25
 312 362 l 25
 312 237 l 25
 62 237 l 25
 62 206 l 25
 93 175 l 25
 312 175 l 25
 250 112 l 25
 62 112 l 25
 0 175 l 25
 0 362 l 25
 62 425 l 25
EndSplineSet
Validated: 1
EndChar

StartChar: f
Encoding: 102 102 93
Width: 375
Flags: HW
LayerCount: 2
Fore
SplineSet
125 675 m 25
 312 675 l 25
 312 612 l 25
 156 612 l 25
 125 581 l 25
 125 425 l 25
 250 425 l 25
 250 362 l 25
 125 362 l 25
 125 112 l 25
 62 112 l 25
 62 362 l 25
 0 362 l 25
 0 425 l 25
 62 425 l 25
 62 612 l 25
 125 675 l 25
EndSplineSet
Validated: 1
EndChar

StartChar: g
Encoding: 103 103 94
Width: 375
Flags: HW
LayerCount: 2
Fore
SplineSet
93 175 m 25
 218 175 l 25
 250 206 l 25
 250 331 l 25
 218 362 l 25
 93 362 l 25
 62 331 l 25
 62 206 l 25
 93 175 l 25
250 -138 m 25
 62 -138 l 25
 0 -75 l 25
 0 50 l 25
 62 50 l 25
 62 -44 l 25
 93 -75 l 25
 218 -75 l 25
 250 -44 l 25
 250 144 l 25
 218 112 l 25
 62 112 l 25
 0 175 l 25
 0 362 l 25
 62 425 l 25
 218 425 l 1
 250 393 l 1
 250 425 l 1
 312 425 l 9
 312 -75 l 25
 250 -138 l 25
EndSplineSet
Validated: 1
EndChar

StartChar: h
Encoding: 104 104 95
Width: 375
Flags: HW
LayerCount: 2
Fore
SplineSet
250 112 m 25
 250 331 l 25
 218 362 l 25
 93 362 l 25
 62 331 l 25
 62 112 l 25
 0 112 l 25
 0 675 l 25
 62 675 l 25
 62 393 l 25
 93 425 l 25
 250 425 l 25
 312 362 l 25
 312 112 l 25
 250 112 l 25
EndSplineSet
Validated: 1
EndChar

StartChar: i
Encoding: 105 105 96
Width: 375
Flags: HW
LayerCount: 2
Fore
SplineSet
125 425 m 29
 187 425 l 25
 187 112 l 25
 125 112 l 25
 125 425 l 29
125 675 m 25
 187 675 l 25
 187 612 l 25
 125 612 l 25
 125 675 l 25
EndSplineSet
Validated: 1
EndChar

StartChar: j
Encoding: 106 106 97
Width: 375
Flags: HW
LayerCount: 2
Fore
SplineSet
125 425 m 25
 187 425 l 25
 187 -75 l 1
 125 -138 l 1
 62 -138 l 5
 0 -75 l 1
 0 50 l 1
 62 50 l 1
 62 -44 l 1
 93 -75 l 1
 125 -44 l 1
 125 425 l 25
125 675 m 25
 187 675 l 25
 187 612 l 25
 125 612 l 25
 125 675 l 25
EndSplineSet
Validated: 1
EndChar

StartChar: k
Encoding: 107 107 98
Width: 375
Flags: HW
LayerCount: 2
Fore
SplineSet
62 331 m 25
 250 425 l 25
 312 425 l 1
 312 393 l 1
 62 268 l 1
 312 143 l 1
 312 112 l 1
 250 112 l 25
 62 206 l 25
 62 112 l 25
 0 112 l 25
 0 675 l 25
 62 675 l 25
 62 331 l 25
EndSplineSet
EndChar

StartChar: uni043A
Encoding: 218 1082 99
Width: 375
Flags: HW
LayerCount: 2
Fore
SplineSet
62 331 m 25
 250 425 l 25
 312 425 l 1
 312 393 l 1
 62 268 l 1
 312 143 l 1
 312 112 l 1
 250 112 l 25
 62 206 l 25
 62 112 l 25
 0 112 l 25
 0 425 l 25
 62 425 l 25
 62 331 l 25
EndSplineSet
Validated: 1
EndChar

StartChar: l
Encoding: 108 108 100
Width: 375
Flags: HW
LayerCount: 2
Fore
SplineSet
125 675 m 25
 187 675 l 25
 187 112 l 25
 125 112 l 25
 125 675 l 25
EndSplineSet
Validated: 1
EndChar

StartChar: m
Encoding: 109 109 101
Width: 375
Flags: HW
LayerCount: 2
Fore
SplineSet
0 425 m 25
 62 425 l 25
 62 393 l 25
 93 425 l 25
 125 425 l 25
 156 393 l 25
 187 425 l 25
 250 425 l 25
 312 362 l 25
 312 112 l 25
 250 112 l 25
 250 331 l 25
 218 362 l 25
 187 331 l 25
 187 112 l 25
 125 112 l 25
 125 331 l 25
 93 362 l 25
 62 331 l 25
 62 112 l 25
 0 112 l 25
 0 425 l 25
EndSplineSet
Validated: 1
EndChar

StartChar: n
Encoding: 110 110 102
Width: 375
Flags: HW
LayerCount: 2
Fore
SplineSet
218 362 m 25
 93 362 l 25
 62 331 l 25
 62 112 l 25
 0 112 l 25
 0 425 l 25
 62 425 l 25
 62 393 l 25
 93 425 l 25
 250 425 l 25
 312 362 l 25
 312 112 l 25
 250 112 l 25
 250 331 l 25
 218 362 l 25
EndSplineSet
Validated: 1
EndChar

StartChar: o
Encoding: 111 111 103
Width: 375
Flags: HW
LayerCount: 2
Fore
SplineSet
218 362 m 25
 93 362 l 25
 62 331 l 25
 62 206 l 1
 93 175 l 25
 218 175 l 25
 250 206 l 1
 250 331 l 25
 218 362 l 25
62 425 m 25
 250 425 l 25
 312 362 l 25
 312 175 l 1
 250 112 l 25
 62 112 l 25
 0 175 l 1
 0 362 l 25
 62 425 l 25
EndSplineSet
Validated: 1
EndChar

StartChar: uni043E
Encoding: 222 1086 104
Width: 375
Flags: HW
LayerCount: 2
Fore
SplineSet
218 362 m 25
 93 362 l 25
 62 331 l 25
 62 206 l 1
 93 175 l 25
 218 175 l 25
 250 206 l 1
 250 331 l 25
 218 362 l 25
62 425 m 25
 250 425 l 25
 312 362 l 25
 312 175 l 1
 250 112 l 25
 62 112 l 25
 0 175 l 1
 0 362 l 25
 62 425 l 25
EndSplineSet
Validated: 1
EndChar

StartChar: r
Encoding: 114 114 105
Width: 375
Flags: HW
LayerCount: 2
Fore
SplineSet
0 112 m 25
 0 425 l 25
 62 425 l 25
 62 393 l 25
 93 425 l 25
 250 425 l 25
 312 362 l 25
 312 300 l 25
 250 300 l 25
 250 331 l 25
 218 362 l 25
 93 362 l 25
 62 331 l 25
 62 112 l 25
 0 112 l 25
EndSplineSet
Validated: 1
EndChar

StartChar: s
Encoding: 115 115 106
Width: 375
Flags: HW
LayerCount: 2
Fore
SplineSet
312 362 m 25
 93 362 l 1
 62 331 l 25
 93 300 l 1
 250 300 l 25
 312 237 l 1
 312 175 l 1
 250 112 l 25
 62 112 l 25
 0 175 l 25
 218 175 l 25
 250 206 l 25
 218 237 l 25
 57 237 l 25
 0 300 l 25
 0 362 l 25
 62 425 l 25
 250 425 l 1
 312 362 l 25
EndSplineSet
Validated: 1
EndChar

StartChar: t
Encoding: 116 116 107
Width: 375
Flags: HW
LayerCount: 2
Fore
SplineSet
125 112 m 25
 62 175 l 25
 62 362 l 25
 0 362 l 25
 0 425 l 25
 62 425 l 25
 62 675 l 25
 125 675 l 25
 125 425 l 25
 250 425 l 25
 250 362 l 25
 125 362 l 25
 125 206 l 25
 156 175 l 17
 218 175 l 1
 250 206 l 1
 250 300 l 1
 312 300 l 1
 312 175 l 1
 250 112 l 25
 125 112 l 25
EndSplineSet
Validated: 1
EndChar

StartChar: u
Encoding: 117 117 108
Width: 375
Flags: HW
LayerCount: 2
Fore
SplineSet
312 425 m 25
 312 112 l 5
 250 112 l 1
 250 143 l 1
 218 112 l 9
 62 112 l 25
 0 175 l 1
 0 425 l 25
 62 425 l 25
 62 206 l 1
 93 175 l 25
 218 175 l 25
 250 206 l 1
 250 425 l 25
 312 425 l 25
EndSplineSet
Validated: 1
EndChar

StartChar: v
Encoding: 118 118 109
Width: 375
Flags: HW
LayerCount: 2
Fore
SplineSet
0 425 m 25
 62 425 l 25
 156 190 l 25
 250 425 l 25
 312 425 l 25
 187 112 l 25
 125 112 l 25
 0 425 l 25
EndSplineSet
Validated: 1
EndChar

StartChar: w
Encoding: 119 119 110
Width: 375
Flags: HW
LayerCount: 2
Fore
SplineSet
0 112 m 1
 0 425 l 25
 62 425 l 25
 62 268 l 1
 125 425 l 25
 187 425 l 25
 250 268 l 1
 250 425 l 25
 312 425 l 25
 312 112 l 1
 250 112 l 25
 156 346 l 25
 62 112 l 25
 0 112 l 1
EndSplineSet
Validated: 1
EndChar

StartChar: x
Encoding: 120 120 111
Width: 375
Flags: HW
LayerCount: 2
Fore
SplineSet
0 425 m 25
 62 425 l 25
 156 319 l 25
 250 425 l 25
 312 425 l 25
 312 393 l 25
 201 268 l 25
 312 143 l 25
 312 112 l 25
 250 112 l 25
 156 217 l 25
 62 112 l 25
 0 112 l 25
 0 143 l 25
 111 268 l 25
 0 393 l 25
 0 425 l 25
EndSplineSet
Validated: 1
EndChar

StartChar: uni0445
Encoding: 229 1093 112
Width: 375
Flags: HW
LayerCount: 2
Fore
SplineSet
0 425 m 25
 62 425 l 25
 156 319 l 25
 250 425 l 25
 312 425 l 25
 312 393 l 25
 201 268 l 25
 312 143 l 25
 312 112 l 25
 250 112 l 25
 156 217 l 25
 62 112 l 25
 0 112 l 25
 0 143 l 25
 111 268 l 25
 0 393 l 25
 0 425 l 25
EndSplineSet
Validated: 1
EndChar

StartChar: y
Encoding: 121 121 113
Width: 375
Flags: HW
LayerCount: 2
Fore
SplineSet
62 -138 m 25
 0 -138 l 25
 125 143 l 25
 0 425 l 25
 62 425 l 25
 156 214 l 25
 250 425 l 25
 312 425 l 25
 62 -138 l 25
EndSplineSet
Validated: 1
EndChar

StartChar: uni0423
Encoding: 195 1059 114
Width: 375
Flags: HW
LayerCount: 2
Fore
SplineSet
62 112 m 29
 0 112 l 29
 125 393 l 29
 0 675 l 29
 62 675 l 29
 156 464 l 29
 250 675 l 29
 312 675 l 29
 62 112 l 29
EndSplineSet
Validated: 1
EndChar

StartChar: uni0443
Encoding: 227 1091 115
Width: 375
Flags: HW
LayerCount: 2
Fore
SplineSet
62 -138 m 25
 0 -138 l 25
 125 143 l 25
 0 425 l 25
 62 425 l 25
 156 214 l 25
 250 425 l 25
 312 425 l 25
 62 -138 l 25
EndSplineSet
Validated: 1
EndChar

StartChar: z
Encoding: 122 122 116
Width: 375
Flags: HW
LayerCount: 2
Fore
SplineSet
0 425 m 25
 312 425 l 25
 312 362 l 25
 101 175 l 25
 312 175 l 25
 312 112 l 25
 0 112 l 25
 0 175 l 25
 210 362 l 25
 0 362 l 25
 0 425 l 25
EndSplineSet
Validated: 1
EndChar

StartChar: uni043C
Encoding: 220 1084 117
Width: 375
Flags: HW
LayerCount: 2
Fore
SplineSet
0 425 m 1
 62 425 l 25
 156 190 l 25
 250 425 l 25
 312 425 l 1
 312 112 l 25
 250 112 l 25
 250 268 l 1
 187 112 l 25
 125 112 l 25
 62 268 l 1
 62 112 l 25
 0 112 l 25
 0 425 l 1
EndSplineSet
Validated: 1
EndChar

StartChar: braceleft
Encoding: 123 123 118
Width: 375
Flags: HW
LayerCount: 2
Fore
SplineSet
187 675 m 25
 250 675 l 25
 250 612 l 25
 218 612 l 25
 187 581 l 25
 187 331 l 25
 125 268 l 25
 187 206 l 25
 187 -44 l 25
 218 -75 l 25
 250 -75 l 25
 250 -138 l 25
 187 -138 l 25
 125 -75 l 25
 125 175 l 25
 62 237 l 25
 62 300 l 25
 125 362 l 25
 125 612 l 25
 187 675 l 25
EndSplineSet
Validated: 1
EndChar

StartChar: bar
Encoding: 124 124 119
Width: 375
Flags: HW
LayerCount: 2
Fore
SplineSet
125 675 m 25
 187 675 l 25
 187 -138 l 25
 125 -138 l 25
 125 675 l 25
EndSplineSet
Validated: 1
EndChar

StartChar: braceright
Encoding: 125 125 120
Width: 375
Flags: HW
LayerCount: 2
Fore
SplineSet
125 675 m 25
 187 612 l 25
 187 362 l 25
 250 300 l 25
 250 237 l 25
 187 175 l 25
 187 -75 l 25
 125 -138 l 25
 62 -138 l 25
 62 -75 l 25
 93 -75 l 25
 125 -44 l 25
 125 206 l 25
 187 268 l 25
 125 331 l 25
 125 581 l 25
 93 612 l 25
 62 612 l 25
 62 675 l 25
 125 675 l 25
EndSplineSet
Validated: 1
EndChar

StartChar: asciitilde
Encoding: 126 126 121
Width: 375
Flags: HW
LayerCount: 2
Fore
SplineSet
62 362 m 25
 125 362 l 25
 218 237 l 25
 281 300 l 25
 312 300 l 25
 312 237 l 25
 250 175 l 25
 187 175 l 25
 93 300 l 25
 31 237 l 25
 0 237 l 25
 0 300 l 25
 62 362 l 25
EndSplineSet
Validated: 1
EndChar

StartChar: uni0411
Encoding: 177 1041 122
Width: 375
Flags: HW
LayerCount: 2
Fore
SplineSet
218 362 m 25
 62 362 l 25
 62 175 l 25
 218 175 l 25
 250 206 l 25
 250 331 l 25
 218 362 l 25
312 612 m 25
 62 612 l 25
 62 425 l 1
 250 425 l 25
 312 362 l 1
 312 175 l 25
 250 112 l 25
 0 112 l 25
 0 675 l 25
 312 675 l 25
 312 612 l 25
EndSplineSet
Validated: 1
EndChar

StartChar: uni0413
Encoding: 179 1043 123
Width: 375
Flags: HW
LayerCount: 2
Fore
SplineSet
0 112 m 25
 0 675 l 25
 312 675 l 25
 312 612 l 25
 62 612 l 25
 62 112 l 9
 0 112 l 25
EndSplineSet
Validated: 1
EndChar

StartChar: uni0414
Encoding: 180 1044 124
Width: 375
Flags: HW
LayerCount: 2
Fore
SplineSet
187 612 m 25
 156 612 l 25
 125 581 l 25
 125 175 l 25
 187 175 l 25
 187 612 l 25
125 675 m 25
 250 675 l 25
 250 175 l 25
 312 175 l 25
 312 -13 l 25
 250 -13 l 25
 250 112 l 25
 62 112 l 25
 62 -13 l 25
 0 -13 l 25
 0 175 l 25
 62 175 l 25
 62 612 l 25
 125 675 l 25
EndSplineSet
Validated: 1
EndChar

StartChar: uni0416
Encoding: 182 1046 125
Width: 375
Flags: HW
LayerCount: 2
Fore
SplineSet
125 675 m 25
 187 675 l 25
 187 518 l 25
 250 675 l 25
 312 675 l 25
 187 393 l 25
 312 112 l 25
 250 112 l 25
 187 268 l 25
 187 112 l 25
 125 112 l 25
 125 268 l 25
 62 112 l 25
 0 112 l 25
 125 393 l 25
 0 675 l 25
 62 675 l 25
 125 518 l 25
 125 675 l 25
EndSplineSet
Validated: 1
EndChar

StartChar: uni041B
Encoding: 187 1051 127
Width: 375
Flags: HW
LayerCount: 2
Fore
SplineSet
62 675 m 25
 312 675 l 25
 312 112 l 25
 250 112 l 25
 250 612 l 25
 125 612 l 25
 125 175 l 25
 62 112 l 25
 0 112 l 25
 0 143 l 25
 62 206 l 25
 62 675 l 25
EndSplineSet
Validated: 1
EndChar

StartChar: uni041F
Encoding: 191 1055 128
Width: 375
Flags: HW
LayerCount: 2
Fore
SplineSet
0 112 m 25
 0 675 l 25
 312 675 l 25
 312 112 l 25
 250 112 l 25
 250 612 l 25
 62 612 l 25
 62 112 l 25
 0 112 l 25
EndSplineSet
Validated: 1
EndChar

StartChar: uni0424
Encoding: 196 1060 129
Width: 375
Flags: HW
LayerCount: 2
Fore
SplineSet
62 581 m 25
 62 206 l 25
 93 175 l 25
 125 175 l 25
 125 612 l 25
 93 612 l 25
 62 581 l 25
250 206 m 25
 250 581 l 25
 218 612 l 25
 187 612 l 25
 187 175 l 25
 218 175 l 25
 250 206 l 25
62 112 m 25
 0 175 l 25
 0 612 l 25
 62 675 l 25
 125 675 l 25
 125 800 l 25
 187 800 l 25
 187 675 l 25
 250 675 l 25
 312 612 l 25
 312 175 l 25
 250 112 l 25
 187 112 l 25
 187 -13 l 25
 125 -13 l 25
 125 112 l 25
 62 112 l 25
EndSplineSet
Validated: 1
EndChar

StartChar: uni0426
Encoding: 198 1062 130
Width: 375
Flags: HW
LayerCount: 2
Fore
SplineSet
0 675 m 29
 62 675 l 25
 62 175 l 25
 250 175 l 25
 250 675 l 25
 312 675 l 25
 312 175 l 25
 375 175 l 25
 375 -13 l 25
 312 -13 l 25
 312 112 l 25
 0 112 l 25
 0 675 l 29
EndSplineSet
Validated: 1
EndChar

StartChar: uni0427
Encoding: 199 1063 131
Width: 375
Flags: HW
LayerCount: 2
Fore
SplineSet
0 675 m 25
 62 675 l 25
 62 456 l 25
 93 425 l 25
 218 425 l 25
 250 456 l 25
 250 675 l 25
 312 675 l 25
 312 112 l 25
 250 112 l 25
 249 393 l 25
 218 362 l 25
 62 362 l 25
 0 425 l 25
 0 675 l 25
EndSplineSet
Validated: 1
EndChar

StartChar: uni0428
Encoding: 200 1064 132
Width: 375
Flags: HW
LayerCount: 2
Fore
SplineSet
0 675 m 25
 62 675 l 25
 62 175 l 25
 125 175 l 25
 125 675 l 25
 187 675 l 25
 187 175 l 25
 250 175 l 25
 250 675 l 25
 312 675 l 25
 312 112 l 25
 0 112 l 25
 0 675 l 25
EndSplineSet
Validated: 1
EndChar

StartChar: uni0429
Encoding: 201 1065 133
Width: 375
Flags: HW
LayerCount: 2
Fore
SplineSet
0 675 m 25
 62 675 l 25
 62 175 l 25
 125 175 l 25
 125 675 l 25
 187 675 l 25
 187 175 l 25
 250 175 l 25
 250 675 l 25
 312 675 l 17
 312 175 l 1
 375 175 l 1
 375 -13 l 1
 312 -13 l 1
 312 112 l 9
 0 112 l 25
 0 675 l 25
EndSplineSet
Validated: 1
EndChar

StartChar: uni042A
Encoding: 202 1066 134
Width: 375
Flags: HW
LayerCount: 2
Fore
SplineSet
218 362 m 25
 125 362 l 25
 125 175 l 25
 218 175 l 25
 250 206 l 25
 250 331 l 25
 218 362 l 25
0 675 m 25
 125 675 l 25
 125 425 l 25
 250 425 l 25
 312 362 l 25
 312 175 l 25
 250 112 l 25
 62 112 l 25
 62 612 l 25
 0 612 l 25
 0 675 l 25
EndSplineSet
Validated: 1
EndChar

StartChar: uni042C
Encoding: 204 1068 135
Width: 375
Flags: HW
LayerCount: 2
Fore
SplineSet
218 362 m 25
 62 362 l 25
 62 175 l 25
 218 175 l 25
 250 206 l 25
 250 331 l 25
 218 362 l 25
62 675 m 25
 62 425 l 25
 250 425 l 25
 312 362 l 25
 312 175 l 25
 250 112 l 25
 0 112 l 25
 0 675 l 25
 62 675 l 25
EndSplineSet
Validated: 1
EndChar

StartChar: uni042B
Encoding: 203 1067 136
Width: 375
Flags: HW
LayerCount: 2
Fore
SplineSet
250 675 m 25
 312 675 l 25
 312 112 l 25
 250 112 l 25
 250 675 l 25
93 362 m 25
 62 362 l 25
 62 175 l 25
 93 175 l 25
 125 206 l 25
 125 331 l 25
 93 362 l 25
62 675 m 25
 62 425 l 25
 125 425 l 25
 187 362 l 25
 187 175 l 25
 125 112 l 25
 0 112 l 25
 0 675 l 25
 62 675 l 25
EndSplineSet
Validated: 1
EndChar

StartChar: uni042D
Encoding: 205 1069 137
Width: 375
Flags: HW
LayerCount: 2
Fore
SplineSet
250 362 m 25
 125 362 l 25
 125 425 l 25
 250 425 l 25
 250 581 l 25
 218 612 l 25
 93 612 l 25
 62 581 l 25
 62 487 l 25
 0 487 l 25
 0 612 l 25
 62 675 l 25
 250 675 l 25
 312 612 l 25
 312 175 l 25
 250 112 l 25
 62 112 l 25
 0 175 l 25
 0 300 l 25
 62 300 l 25
 62 206 l 25
 93 175 l 25
 218 175 l 25
 250 206 l 25
 250 362 l 25
EndSplineSet
Validated: 1
EndChar

StartChar: uni042E
Encoding: 206 1070 138
Width: 375
Flags: HW
LayerCount: 2
Fore
SplineSet
218 612 m 25
 187 581 l 25
 187 206 l 25
 218 175 l 25
 250 206 l 25
 250 581 l 25
 218 612 l 25
0 675 m 25
 62 675 l 25
 62 425 l 25
 125 425 l 25
 125 612 l 25
 187 675 l 25
 250 675 l 25
 312 612 l 25
 312 175 l 25
 250 112 l 25
 187 112 l 25
 125 175 l 25
 125 362 l 25
 62 362 l 25
 59 120 l 25
 0 120 l 25
 0 675 l 25
EndSplineSet
Validated: 1
EndChar

StartChar: uni0431
Encoding: 209 1073 139
Width: 375
Flags: HW
LayerCount: 2
Fore
SplineSet
218 362 m 25
 93 362 l 25
 62 331 l 25
 62 206 l 25
 93 175 l 25
 218 175 l 25
 250 206 l 25
 250 331 l 25
 218 362 l 25
250 550 m 25
 93 550 l 25
 62 518 l 25
 62 393 l 25
 93 425 l 25
 250 425 l 25
 312 362 l 25
 312 175 l 25
 250 112 l 25
 69 112 l 25
 0 175 l 25
 0 549 l 25
 62 612 l 17
 218 612 l 1
 281 675 l 1
 312 675 l 1
 312 612 l 9
 250 550 l 25
EndSplineSet
Validated: 1
EndChar

StartChar: uni0432
Encoding: 210 1074 140
Width: 375
Flags: HW
LayerCount: 2
Fore
SplineSet
218 237 m 25
 62 237 l 25
 62 175 l 25
 218 175 l 25
 250 206 l 25
 218 237 l 25
218 362 m 25
 62 362 l 25
 62 300 l 25
 218 300 l 25
 250 331 l 25
 218 362 l 25
0 425 m 25
 250 425 l 25
 312 362 l 25
 312 300 l 25
 281 268 l 25
 312 237 l 25
 312 175 l 25
 250 112 l 25
 0 112 l 25
 0 425 l 25
EndSplineSet
Validated: 1
EndChar

StartChar: uni0433
Encoding: 211 1075 141
Width: 375
Flags: HW
LayerCount: 2
Fore
SplineSet
0 112 m 1
 0 425 l 25
 312 425 l 25
 312 362 l 25
 62 362 l 25
 62 112 l 1
 0 112 l 1
EndSplineSet
Validated: 1
EndChar

StartChar: uni0434
Encoding: 212 1076 142
Width: 375
Flags: HW
LayerCount: 2
Fore
SplineSet
187 362 m 25
 156 362 l 25
 125 331 l 25
 125 175 l 25
 187 175 l 25
 187 362 l 25
125 425 m 25
 250 425 l 25
 250 175 l 25
 312 175 l 25
 312 -13 l 25
 250 -13 l 25
 250 112 l 25
 62 112 l 25
 62 -13 l 25
 0 -13 l 25
 0 175 l 25
 62 175 l 25
 62 362 l 25
 125 425 l 25
EndSplineSet
Validated: 1
EndChar

StartChar: uni0436
Encoding: 214 1078 143
Width: 375
Flags: HW
LayerCount: 2
Fore
SplineSet
125 354 m 25
 125 425 l 25
 187 425 l 25
 187 354 l 25
 250 425 l 25
 312 425 l 25
 312 393 l 25
 201 268 l 25
 312 143 l 25
 312 112 l 25
 250 112 l 25
 187 182 l 25
 187 112 l 25
 125 112 l 25
 125 182 l 25
 62 112 l 25
 0 112 l 25
 0 143 l 25
 111 268 l 25
 0 393 l 25
 0 425 l 25
 62 425 l 25
 125 354 l 25
EndSplineSet
Validated: 1
EndChar

StartChar: uni0437
Encoding: 215 1079 144
Width: 375
Flags: HW
LayerCount: 2
Fore
SplineSet
218 362 m 25
 93 362 l 25
 62 331 l 25
 62 300 l 25
 0 300 l 25
 0 362 l 25
 62 425 l 25
 250 425 l 25
 312 362 l 25
 312 300 l 25
 281 268 l 25
 312 237 l 25
 312 175 l 25
 250 112 l 25
 62 112 l 25
 0 175 l 25
 0 237 l 25
 62 237 l 25
 62 206 l 25
 93 175 l 25
 218 175 l 25
 250 206 l 25
 218 237 l 25
 125 237 l 25
 125 300 l 25
 218 300 l 25
 250 331 l 25
 218 362 l 25
EndSplineSet
Validated: 1
EndChar

StartChar: uni0438
Encoding: 216 1080 145
Width: 375
Flags: HW
LayerCount: 2
Fore
SplineSet
312 425 m 25
 312 112 l 25
 250 112 l 25
 250 323 l 25
 62 112 l 25
 0 112 l 25
 0 425 l 25
 62 425 l 25
 62 214 l 25
 250 425 l 25
 312 425 l 25
EndSplineSet
Validated: 1
EndChar

StartChar: uni0439
Encoding: 217 1081 146
Width: 375
Flags: HW
LayerCount: 2
Fore
SplineSet
62 550 m 25
 250 550 l 25
 250 487 l 25
 62 487 l 25
 62 550 l 25
312 425 m 25
 312 112 l 25
 250 112 l 25
 250 323 l 25
 62 112 l 25
 0 112 l 25
 0 425 l 25
 62 425 l 25
 62 214 l 25
 250 425 l 25
 312 425 l 25
EndSplineSet
Validated: 1
EndChar

StartChar: uni043B
Encoding: 219 1083 147
Width: 375
Flags: HW
LayerCount: 2
Fore
SplineSet
125 425 m 25
 312 425 l 25
 312 112 l 25
 250 112 l 25
 250 362 l 25
 156 362 l 25
 125 331 l 25
 125 175 l 25
 62 112 l 25
 0 112 l 25
 0 143 l 25
 62 206 l 25
 62 362 l 25
 125 425 l 25
EndSplineSet
Validated: 1
EndChar

StartChar: uni043D
Encoding: 221 1085 148
Width: 375
Flags: HW
LayerCount: 2
Fore
SplineSet
0 425 m 25
 62 425 l 25
 62 300 l 25
 250 300 l 25
 250 425 l 25
 312 425 l 25
 312 112 l 25
 250 112 l 25
 250 237 l 25
 62 237 l 25
 62 112 l 25
 0 112 l 25
 0 425 l 25
EndSplineSet
Validated: 1
EndChar

StartChar: uni043F
Encoding: 223 1087 149
Width: 375
Flags: HW
LayerCount: 2
Fore
SplineSet
0 112 m 25
 0 425 l 25
 312 425 l 25
 312 112 l 25
 250 112 l 25
 250 362 l 25
 62 362 l 25
 62 112 l 25
 0 112 l 25
EndSplineSet
Validated: 1
EndChar

StartChar: uni0442
Encoding: 226 1090 150
Width: 375
Flags: HW
LayerCount: 2
Fore
SplineSet
0 425 m 25
 312 425 l 25
 312 362 l 25
 187 362 l 25
 187 112 l 25
 125 112 l 25
 125 362 l 25
 0 362 l 25
 0 425 l 25
EndSplineSet
Validated: 1
EndChar

StartChar: uni0444
Encoding: 228 1092 151
Width: 375
Flags: HW
LayerCount: 2
Fore
SplineSet
62 331 m 25
 62 206 l 25
 93 175 l 25
 125 175 l 25
 125 362 l 25
 93 362 l 25
 62 331 l 25
250 206 m 25
 250 331 l 25
 218 362 l 25
 187 362 l 25
 187 175 l 25
 218 175 l 25
 250 206 l 25
62 112 m 25
 0 175 l 25
 0 362 l 25
 62 425 l 25
 125 425 l 25
 125 550 l 25
 187 550 l 25
 187 425 l 25
 250 425 l 25
 312 362 l 25
 312 175 l 25
 250 112 l 25
 187 112 l 25
 187 -13 l 25
 125 -13 l 25
 125 112 l 25
 62 112 l 25
EndSplineSet
Validated: 1
EndChar

StartChar: uni0446
Encoding: 230 1094 152
Width: 375
Flags: HW
LayerCount: 2
Fore
SplineSet
0 425 m 25
 62 425 l 25
 62 175 l 25
 250 175 l 25
 250 425 l 25
 312 425 l 25
 312 175 l 25
 375 175 l 25
 375 -13 l 25
 312 -13 l 25
 312 112 l 25
 0 112 l 25
 0 425 l 25
EndSplineSet
Validated: 1
EndChar

StartChar: uni0447
Encoding: 231 1095 153
Width: 375
Flags: HW
LayerCount: 2
Fore
SplineSet
0 425 m 25
 62 425 l 25
 62 331 l 25
 93 300 l 25
 218 300 l 25
 250 331 l 25
 250 425 l 25
 312 425 l 25
 312 112 l 1
 250 112 l 1
 249 268 l 25
 218 237 l 25
 62 237 l 25
 0 300 l 25
 0 425 l 25
EndSplineSet
Validated: 1
EndChar

StartChar: uni0448
Encoding: 232 1096 154
Width: 375
Flags: HW
LayerCount: 2
Fore
SplineSet
0 425 m 29
 62 425 l 29
 62 175 l 1
 125 175 l 1
 125 425 l 29
 187 425 l 29
 187 175 l 1
 250 175 l 1
 250 425 l 29
 312 425 l 29
 312 112 l 1
 0 112 l 1
 0 425 l 29
EndSplineSet
Validated: 1
EndChar

StartChar: uni0449
Encoding: 233 1097 155
Width: 375
Flags: HW
LayerCount: 2
Fore
SplineSet
0 425 m 25
 62 425 l 25
 62 175 l 1
 125 175 l 1
 125 425 l 25
 187 425 l 25
 187 175 l 1
 250 175 l 1
 250 425 l 25
 312 425 l 17
 312 175 l 1
 375 175 l 1
 375 -13 l 1
 312 -13 l 1
 312 112 l 9
 0 112 l 1
 0 425 l 25
EndSplineSet
Validated: 1
EndChar

StartChar: uni044A
Encoding: 234 1098 156
Width: 375
Flags: HW
LayerCount: 2
Fore
SplineSet
218 237 m 25
 125 237 l 25
 125 175 l 25
 218 175 l 25
 250 206 l 25
 218 237 l 25
0 425 m 25
 125 425 l 25
 125 300 l 25
 250 300 l 25
 312 237 l 25
 312 175 l 25
 250 112 l 25
 62 112 l 25
 62 362 l 25
 0 362 l 25
 0 425 l 25
EndSplineSet
Validated: 1
EndChar

StartChar: uni044B
Encoding: 235 1099 157
Width: 375
Flags: HW
LayerCount: 2
Fore
SplineSet
250 425 m 25
 312 425 l 25
 312 112 l 25
 250 112 l 25
 250 425 l 25
93 237 m 25
 62 237 l 25
 62 175 l 25
 93 175 l 25
 125 206 l 25
 93 237 l 25
62 425 m 25
 62 300 l 25
 125 300 l 25
 187 237 l 25
 187 175 l 25
 125 112 l 25
 0 112 l 25
 0 425 l 25
 62 425 l 25
EndSplineSet
Validated: 1
EndChar

StartChar: uni044C
Encoding: 236 1100 158
Width: 375
Flags: HW
LayerCount: 2
Fore
SplineSet
218 237 m 25
 62 237 l 25
 62 175 l 25
 218 175 l 25
 250 206 l 25
 218 237 l 25
62 425 m 25
 62 300 l 25
 250 300 l 25
 312 237 l 25
 312 175 l 25
 250 112 l 25
 0 112 l 25
 0 425 l 25
 62 425 l 25
EndSplineSet
Validated: 1
EndChar

StartChar: uni044D
Encoding: 237 1101 159
Width: 375
Flags: HW
LayerCount: 2
Fore
SplineSet
250 237 m 25
 125 237 l 25
 125 300 l 25
 250 300 l 25
 250 331 l 25
 218 362 l 25
 93 362 l 25
 62 331 l 25
 62 300 l 25
 0 300 l 25
 0 362 l 25
 62 425 l 25
 250 425 l 25
 312 362 l 25
 312 175 l 25
 250 112 l 25
 62 112 l 25
 0 175 l 25
 0 237 l 25
 62 237 l 25
 62 206 l 25
 93 175 l 25
 218 175 l 25
 250 206 l 25
 250 237 l 25
EndSplineSet
Validated: 1
EndChar

StartChar: uni044E
Encoding: 238 1102 160
Width: 375
Flags: HW
LayerCount: 2
Fore
SplineSet
218 362 m 25
 187 331 l 25
 187 206 l 25
 218 175 l 25
 250 206 l 25
 250 331 l 25
 218 362 l 25
0 425 m 25
 62 425 l 25
 62 300 l 25
 125 300 l 25
 125 362 l 25
 187 425 l 25
 250 425 l 25
 312 362 l 25
 312 175 l 25
 250 112 l 25
 187 112 l 25
 125 175 l 25
 125 237 l 25
 62 237 l 25
 59 120 l 25
 0 120 l 25
 0 425 l 25
EndSplineSet
Validated: 1
EndChar

StartChar: uni044F
Encoding: 239 1103 161
Width: 375
Flags: HW
LayerCount: 2
Fore
SplineSet
62 331 m 25
 94 300 l 25
 250 300 l 25
 250 362 l 25
 94 362 l 25
 62 331 l 25
312 425 m 25
 312 112 l 25
 250 112 l 25
 250 206 l 25
 62 112 l 25
 0 112 l 25
 0 143 l 25
 187 237 l 25
 62 237 l 25
 0 300 l 25
 0 362 l 25
 62 425 l 25
 312 425 l 25
EndSplineSet
Validated: 1
EndChar

StartChar: uni2116
Encoding: 240 8470 162
Width: 375
Flags: HW
LayerCount: 2
Fore
SplineSet
312 643 m 25
 250 643 l 25
 250 425 l 25
 312 425 l 25
 312 643 l 25
218 362 m 25
 343 362 l 25
 343 331 l 25
 218 331 l 25
 218 362 l 25
250 675 m 25
 312 675 l 25
 343 643 l 25
 343 425 l 25
 312 393 l 25
 250 393 l 25
 218 425 l 25
 218 643 l 25
 250 675 l 25
0 675 m 25
 62 675 l 25
 125 393 l 25
 125 675 l 25
 187 675 l 25
 187 112 l 25
 125 112 l 25
 62 393 l 25
 62 112 l 25
 0 112 l 25
 0 675 l 25
EndSplineSet
Validated: 1
EndChar

StartChar: uni0406
Encoding: 166 1030 163
Width: 375
Flags: HW
LayerCount: 2
Fore
SplineSet
125 612 m 25
 187 612 l 25
 187 112 l 25
 125 112 l 25
 125 612 l 25
EndSplineSet
Validated: 1
EndChar

StartChar: uni0456
Encoding: 246 1110 164
Width: 375
Flags: HW
LayerCount: 2
Fore
SplineSet
125 425 m 29
 187 425 l 25
 187 112 l 25
 125 112 l 25
 125 425 l 29
125 675 m 25
 187 675 l 25
 187 612 l 25
 125 612 l 25
 125 675 l 25
EndSplineSet
Validated: 1
EndChar

StartChar: uni0408
Encoding: 168 1032 165
Width: 375
Flags: HW
LayerCount: 2
Fore
SplineSet
250 675 m 29
 312 675 l 25
 312 175 l 25
 250 112 l 25
 62 112 l 25
 0 175 l 25
 0 300 l 25
 62 300 l 25
 62 206 l 25
 93 175 l 25
 218 175 l 25
 250 206 l 25
 250 675 l 29
EndSplineSet
Validated: 1
EndChar

StartChar: uni0407
Encoding: 167 1031 166
Width: 375
Flags: HW
LayerCount: 2
Fore
SplineSet
187 800 m 25
 250 800 l 25
 250 737 l 25
 187 737 l 25
 187 800 l 25
62 800 m 25
 125 800 l 25
 125 737 l 25
 62 737 l 25
 62 800 l 25
125 612 m 25
 187 612 l 25
 187 112 l 25
 125 112 l 25
 125 612 l 25
EndSplineSet
Validated: 1
EndChar

StartChar: uni0404
Encoding: 164 1028 167
Width: 375
Flags: HW
LayerCount: 2
Fore
SplineSet
62 362 m 25
 62 206 l 25
 93 175 l 25
 218 175 l 25
 250 206 l 25
 250 300 l 25
 312 300 l 25
 312 175 l 25
 250 112 l 25
 62 112 l 25
 0 175 l 25
 0 612 l 25
 62 675 l 25
 250 675 l 25
 312 612 l 25
 312 487 l 25
 250 487 l 25
 250 581 l 25
 218 612 l 25
 93 612 l 25
 62 581 l 25
 62 425 l 25
 187 425 l 25
 187 362 l 25
 62 362 l 25
EndSplineSet
Validated: 1
EndChar

StartChar: uni00AD
Encoding: 173 173 168
Width: 375
Flags: HW
LayerCount: 2
Fore
SplineSet
0 237 m 5
 0 300 l 5
 312 300 l 5
 312 237 l 5
 0 237 l 5
EndSplineSet
Validated: 1
EndChar

StartChar: uni0458
Encoding: 248 1112 169
Width: 375
Flags: HW
LayerCount: 2
Fore
SplineSet
125 425 m 25
 187 425 l 25
 187 -75 l 1
 125 -138 l 1
 62 -138 l 5
 0 -75 l 1
 0 50 l 1
 62 50 l 1
 62 -44 l 1
 93 -75 l 1
 125 -44 l 1
 125 425 l 25
125 675 m 25
 187 675 l 25
 187 612 l 25
 125 612 l 25
 125 675 l 25
EndSplineSet
Validated: 1
EndChar

StartChar: uni0457
Encoding: 247 1111 170
Width: 375
Flags: HW
LayerCount: 2
Fore
SplineSet
187 675 m 25
 250 675 l 25
 250 612 l 25
 187 612 l 25
 187 675 l 25
125 425 m 25
 187 425 l 25
 187 112 l 25
 125 112 l 25
 125 425 l 25
62 675 m 25
 125 675 l 25
 125 612 l 25
 62 612 l 25
 62 675 l 25
EndSplineSet
Validated: 1
EndChar

StartChar: uni0454
Encoding: 244 1108 171
Width: 375
Flags: HW
LayerCount: 2
Fore
SplineSet
62 237 m 25
 62 206 l 25
 93 175 l 25
 218 175 l 25
 250 206 l 25
 250 237 l 25
 312 237 l 25
 312 175 l 25
 250 112 l 25
 62 112 l 25
 0 175 l 25
 0 362 l 25
 62 425 l 25
 250 425 l 25
 312 362 l 25
 312 300 l 25
 250 300 l 25
 250 331 l 25
 218 362 l 25
 93 362 l 25
 62 331 l 25
 62 300 l 25
 187 300 l 25
 187 237 l 25
 62 237 l 25
EndSplineSet
EndChar
